<?xml version="1.0" standalone="no"?>
<!DOCTYPE svg PUBLIC "-//W3C//DTD SVG 20010904//EN"
 "http://www.w3.org/TR/2001/REC-SVG-20010904/DTD/svg10.dtd">
<svg version="1.0" xmlns="http://www.w3.org/2000/svg"
 width="900.000000pt" height="900.000000pt" viewBox="0 0 900.000000 900.000000"
 preserveAspectRatio="xMidYMid meet">
<metadata>
Created by potrace 1.16, written by Peter Selinger 2001-2019
</metadata>
<g transform="translate(0.000000,900.000000) scale(0.100000,-0.100000)"
fill="#ED1A3B" stroke="none">
<path d="M4410 8997 c-3 -2 -68 -8 -145 -11 -245 -12 -588 -64 -845 -127 -430
-107 -823 -268 -1209 -497 -126 -75 -182 -111 -376 -247 -126 -89 -384 -312
-519 -450 -158 -161 -336 -368 -431 -501 -307 -429 -497 -798 -655 -1274 -159
-480 -243 -1076 -221 -1575 7 -166 52 -533 87 -710 124 -628 420 -1288 807
-1800 139 -185 241 -301 426 -485 273 -273 457 -421 801 -643 167 -107 499
-275 715 -359 376 -148 714 -232 1180 -294 161 -21 752 -24 910 -5 721 89
1253 260 1825 589 203 116 452 291 652 458 119 99 422 402 519 519 752 903
1113 1973 1060 3138 -27 595 -181 1199 -444 1737 -225 463 -491 835 -862 1206
-250 251 -430 400 -685 568 -58 38 -116 77 -130 86 -74 49 -281 161 -428 232
-482 231 -975 366 -1537 422 -153 16 -487 31 -495 23z m-1067 -2056 c57 -32
99 -77 133 -141 20 -38 26 -155 11 -220 -7 -32 -2 -46 74 -170 45 -74 96 -160
114 -190 17 -30 127 -215 244 -410 278 -464 493 -824 786 -1315 228 -384 270
-453 361 -603 22 -37 128 -213 234 -392 107 -179 209 -350 228 -380 18 -30 94
-157 169 -282 122 -205 138 -228 162 -228 41 -1 112 -37 160 -83 63 -61 91
-126 91 -212 0 -119 -60 -216 -166 -270 -141 -72 -299 -27 -391 110 -32 50
-37 64 -41 134 -3 46 0 93 7 114 13 39 3 67 -64 171 -17 28 -56 92 -85 141
-29 50 -69 117 -90 150 -20 33 -124 206 -230 385 -107 179 -287 480 -400 670
-114 190 -294 491 -400 670 -106 179 -212 355 -234 393 -23 37 -59 98 -82 135
-22 37 -64 108 -94 157 -29 50 -70 117 -90 150 -21 33 -144 240 -275 460 -323
543 -288 492 -338 500 -154 25 -269 195 -237 348 15 75 75 165 132 197 74 43
100 50 179 47 63 -3 84 -9 132 -36z m863 -288 c15 -27 39 -68 54 -93 15 -25
53 -90 85 -145 32 -55 77 -131 100 -170 23 -38 82 -137 130 -220 48 -82 122
-208 165 -280 42 -71 103 -175 135 -230 32 -55 77 -131 100 -170 23 -38 67
-113 97 -165 132 -225 223 -380 263 -445 23 -38 61 -104 86 -145 l44 -74 3
1092 2 1092 613 -2 612 -3 0 -2195 0 -2195 -156 -3 -155 -2 -394 657 c-216
362 -438 732 -492 823 -54 91 -103 172 -108 180 -5 8 -64 107 -131 220 -67
113 -143 239 -168 280 -26 41 -67 109 -91 150 -41 71 -59 100 -168 282 -26 43
-67 112 -92 153 -25 42 -63 106 -86 143 -176 288 -894 1495 -894 1502 0 6 80
10 210 10 l209 0 27 -47z m-1549 -15 c89 -151 730 -1222 1108 -1853 237 -396
538 -900 669 -1120 131 -220 253 -422 270 -450 18 -27 79 -129 136 -225 99
-168 137 -232 226 -378 86 -141 184 -309 184 -316 0 -3 -94 -6 -209 -6 l-209
0 -29 47 c-17 27 -49 82 -73 123 -24 41 -65 111 -91 155 -26 44 -86 145 -133
225 -46 80 -103 177 -126 215 -23 39 -80 135 -127 215 -167 285 -197 336 -238
405 -68 114 -205 347 -330 560 -65 110 -124 209 -131 220 -12 17 -14 -143 -14
-1073 l0 -1092 -612 2 -613 3 -3 2198 -2 2197 158 0 158 0 31 -52z"/>
<path d="M3154 6780 c-68 -27 -84 -116 -33 -175 26 -30 38 -35 73 -35 23 0 52
7 64 16 26 18 52 65 52 94 0 73 -86 128 -156 100z"/>
<path d="M5736 2400 c-42 -37 -52 -76 -32 -123 25 -60 96 -83 156 -52 37 19
50 43 50 95 0 34 -6 48 -34 76 -45 45 -91 47 -140 4z"/>
</g>
</svg>
